# Blender 4.0.2
# www.blender.org
mtllib crow_body_stripped.mtl
o body_stripped_export
v 0.028956 -0.054082 -0.006842
v 0.031007 -0.015042 -0.128513
v 0.032191 0.041907 -0.108766
v 0.016787 -0.004881 -0.155968
v 0.016787 0.019791 -0.167686
v 0.021351 0.043174 -0.143378
v 0.016787 0.008220 -0.162147
v 0.005376 -0.005543 -0.201041
v 0.001953 -0.011786 -0.204423
v 0.005376 -0.023214 -0.187305
v 0.001953 -0.026422 -0.199874
v 0.028956 -0.046644 0.026246
v 0.040179 0.042070 0.143244
v 0.040179 0.000856 0.145066
v 0.000000 -0.051026 -0.058053
v 0.000000 0.041318 -0.069024
v 0.000000 -0.058571 -0.026810
v 0.000000 0.049721 -0.013072
v 0.000000 -0.015042 -0.128513
v 0.000000 0.041907 -0.108766
v 0.000000 -0.004881 -0.155968
v 0.000000 0.019791 -0.167686
v 0.000000 0.043174 -0.143378
v 0.000000 0.008220 -0.162147
v 0.000000 -0.005543 -0.201041
v 0.000000 -0.011786 -0.204423
v 0.000000 -0.023214 -0.187305
v 0.000000 -0.026422 -0.199874
v 0.000000 -0.035192 0.077188
v 0.000000 0.044727 0.066841
v 0.000000 0.000856 0.145066
v 0.000000 0.042070 0.143244
v 0.011223 -0.054082 -0.006842
v 0.011223 -0.046644 0.026246
v 0.014571 -0.061567 0.015514
v 0.014571 -0.052897 0.036987
v 0.032304 -0.061567 0.015514
v 0.032304 -0.052897 0.036987
v 0.023551 -0.094490 0.041381
v 0.023551 -0.076204 0.049883
v 0.031805 -0.094490 0.041381
v 0.031805 -0.076204 0.049883
v 0.023551 -0.094275 0.043420
v 0.023551 -0.083549 0.055077
v 0.031805 -0.094275 0.043420
v 0.031805 -0.083549 0.055077
v 0.028892 -0.133700 0.036137
v 0.028892 -0.129634 0.045566
v 0.037170 -0.133700 0.036137
v 0.037170 -0.129634 0.045566
v 0.024165 -0.148481 0.042457
v 0.024165 -0.144415 0.051886
v 0.041898 -0.148481 0.042457
v 0.041898 -0.144415 0.051886
v 0.024165 -0.138202 0.072607
v 0.041898 -0.138202 0.072607
v 0.024165 -0.140561 0.073734
v 0.041898 -0.140561 0.073734
v 0.024165 -0.160005 0.022997
v 0.041898 -0.160005 0.022997
v 0.024165 -0.162344 0.024116
v 0.041898 -0.162344 0.024116
v 0.065662 0.041318 -0.069024
v 0.065662 -0.051026 -0.058053
v 0.065662 -0.058571 -0.026810
v 0.065662 0.049721 -0.013072
v 0.065662 0.044727 0.066841
v 0.065662 -0.035192 0.077188
v -0.028956 -0.054082 -0.006842
v -0.031007 -0.015042 -0.128513
v -0.032191 0.041907 -0.108766
v -0.016787 -0.004881 -0.155968
v -0.016787 0.019791 -0.167686
v -0.021351 0.043174 -0.143378
v -0.016787 0.008220 -0.162147
v -0.005376 -0.005543 -0.201041
v -0.001953 -0.011786 -0.204423
v -0.005376 -0.023214 -0.187305
v -0.001953 -0.026422 -0.199874
v -0.028956 -0.046644 0.026246
v -0.040179 0.042070 0.143244
v -0.040179 0.000856 0.145066
v -0.011223 -0.054082 -0.006842
v -0.011223 -0.046644 0.026246
v -0.014571 -0.061567 0.015514
v -0.014571 -0.052897 0.036987
v -0.032304 -0.061567 0.015514
v -0.032304 -0.052897 0.036987
v -0.023551 -0.094490 0.041381
v -0.023551 -0.076204 0.049883
v -0.031805 -0.094490 0.041381
v -0.031805 -0.076204 0.049883
v -0.023551 -0.094275 0.043420
v -0.023551 -0.083549 0.055077
v -0.031805 -0.094275 0.043420
v -0.031805 -0.083549 0.055077
v -0.028892 -0.133700 0.036137
v -0.028892 -0.129634 0.045566
v -0.037170 -0.133700 0.036137
v -0.037170 -0.129634 0.045566
v -0.024165 -0.148481 0.042457
v -0.024165 -0.144415 0.051886
v -0.041898 -0.148481 0.042457
v -0.041898 -0.144415 0.051886
v -0.024165 -0.138202 0.072607
v -0.041898 -0.138202 0.072607
v -0.024165 -0.140561 0.073734
v -0.041898 -0.140561 0.073734
v -0.024165 -0.160005 0.022997
v -0.041898 -0.160005 0.022997
v -0.024165 -0.162344 0.024116
v -0.041898 -0.162344 0.024116
v -0.065662 0.041318 -0.069024
v -0.065662 -0.051026 -0.058053
v -0.065662 -0.058571 -0.026810
v -0.065662 0.049721 -0.013072
v -0.065662 0.044727 0.066841
v -0.065662 -0.035192 0.077188
vn -0.0000 0.9999 0.0148
vn -0.0000 -0.9721 -0.2347
vn 0.9519 0.0825 -0.2951
vn 0.8539 0.0238 -0.5200
vn -0.0000 0.7963 -0.6049
vn -0.0000 0.9993 0.0366
vn -0.0000 0.7207 -0.6933
vn -0.0000 0.7366 -0.6763
vn -0.0000 0.4764 -0.8792
vn 0.9559 -0.2087 -0.2066
vn -0.0000 -0.9689 0.2474
vn 0.9568 -0.1459 -0.2517
vn -0.0000 -0.8832 0.4690
vn -0.0000 0.8642 0.5031
vn 0.9448 0.0328 0.3261
vn -0.0000 0.9994 0.0348
vn -0.0000 -0.8632 0.5049
vn -0.0000 -0.9039 0.4277
vn -0.0000 -0.9378 -0.3471
vn -0.0000 -0.8906 -0.4548
vn -0.0000 0.9889 -0.1485
vn -0.0000 0.9981 0.0624
vn -0.0000 -0.9757 0.2193
vn -0.0000 0.4841 0.8750
vn -0.9586 -0.2730 0.0806
vn 0.9586 0.2730 -0.0806
vn -0.0000 -0.9483 -0.3175
vn -1.0000 -0.0000 -0.0000
vn -0.9666 -0.1906 0.1714
vn 0.9999 -0.0110 0.0099
vn -0.0000 -0.6178 -0.7863
vn 0.9846 0.1433 -0.1005
vn 1.0000 -0.0000 -0.0000
vn -0.0000 -0.9945 0.1046
vn -0.0000 0.5774 0.8165
vn -0.0000 0.9533 0.3021
vn -0.0000 0.1817 -0.9834
vn -0.0000 -0.2021 0.9794
vn -0.9847 -0.1427 0.1001
vn -0.0000 -0.9183 0.3960
vn -0.9594 0.2591 -0.1117
vn 0.9594 0.2591 -0.1117
vn 0.9689 0.2128 -0.1260
vn -0.0000 0.4311 0.9023
vn 0.9690 0.2365 -0.0709
vn -0.9690 0.2365 -0.0709
vn -0.0000 -0.9848 0.1737
vn -0.0000 -0.4315 -0.9021
vn -0.0000 -0.7978 0.6030
vn -0.9689 0.2128 -0.1260
vn -0.0000 0.4468 -0.8946
vn 0.9400 0.0001 -0.3413
vn -0.9519 0.0825 -0.2951
vn -0.8539 0.0238 -0.5200
vn -0.9559 -0.2087 -0.2066
vn -0.9568 -0.1459 -0.2517
vn -0.9448 0.0328 0.3261
vn -0.0000 -0.9756 0.2193
vn 0.9586 -0.2730 0.0806
vn -0.9586 0.2730 -0.0806
vn 0.9666 -0.1906 0.1714
vn -0.9999 -0.0110 0.0099
vn -0.9846 0.1433 -0.1005
vn 0.9847 -0.1427 0.1001
vn -0.9400 0.0001 -0.3413
vn -0.0000 0.0442 0.9990
vt 0.750000 0.500000
vt 0.625000 0.500000
vt 0.250000 0.500000
vt 0.375000 0.500000
vt 0.375000 0.750000
vt 0.250000 0.750000
vt 0.625000 0.375000
vt 0.500000 0.375000
vt 0.500000 0.500000
vt 0.340085 0.750000
vt 0.284915 0.750000
vt 0.625000 0.750000
vt 0.750000 0.750000
vt 0.340085 0.750000
vt 0.284915 0.750000
s 0
usemtl Material
f 16/1/1 63/2/1 3/2/1 20/1/1
f 15/3/2 64/4/2 65/5/2 17/6/2
f 3/2/3 2/4/3 6/2/3
f 63/2/4 64/4/4 2/4/4 3/2/4
f 22/7/5 5/2/5 8/2/5 25/7/5
f 20/7/6 3/2/6 6/2/6 23/7/6
f 22/7/7 23/7/7 6/2/7 5/2/7
f 24/8/8 7/9/8 11/9/8 28/8/8
f 25/7/9 8/2/9 9/9/9 26/8/9
f 5/2/10 7/9/10 9/9/10 8/2/10
f 27/3/11 28/8/11 11/9/11 10/4/11
f 7/9/12 4/4/12 10/4/12 11/9/12
f 29/6/13 68/5/13 14/5/13 31/6/13
f 12/10/14 34/11/14 36/11/14 38/10/14
f 68/5/15 67/12/15 13/12/15 14/5/15
f 67/12/16 30/13/16 32/13/16 13/12/16
f 4/4/17 21/3/17 27/3/17 10/4/17
f 7/9/18 24/8/18 26/8/18 9/9/18
f 2/4/19 19/3/19 21/3/19 4/4/19
f 64/4/20 15/3/20 19/3/20 2/4/20
f 63/2/21 16/1/21 18/13/21 66/12/21
f 66/12/22 18/13/22 30/13/22 67/12/22
f 1/14/23 33/15/23 17/6/23 65/5/23
f 34/11/23 12/10/23 68/5/23 29/6/23
f 12/10/23 1/14/23 65/5/23 68/5/23
f 33/15/23 34/11/23 29/6/23 17/6/23
f 38/10/24 36/11/24 40/11/24 42/10/24
f 34/11/25 33/15/25 35/15/25 36/11/25
f 1/14/26 12/10/26 38/10/26 37/14/26
f 33/15/27 1/14/27 37/14/27 35/15/27
f 40/11/28 39/15/28 43/15/28 44/11/28
f 36/11/29 35/15/29 39/15/29 40/11/29
f 37/14/30 38/10/30 42/10/30 41/14/30
f 35/15/31 37/14/31 41/14/31 39/15/31
f 45/14/32 46/10/32 50/10/32 49/14/32
f 41/14/33 42/10/33 46/10/33 45/14/33
f 39/15/34 41/14/34 45/14/34 43/15/34
f 42/10/35 40/11/35 44/11/35 46/10/35
f 50/10/36 48/11/36 55/11/36 56/10/36
f 43/15/37 45/14/37 49/14/37 47/15/37
f 46/10/38 44/11/38 48/11/38 50/10/38
f 44/11/39 43/15/39 47/15/39 48/11/39
f 51/15/40 53/14/40 54/10/40 52/11/40
f 48/11/41 47/15/41 51/15/41 52/11/41
f 49/14/42 50/10/42 54/10/42 53/14/42
f 49/14/43 53/14/43 62/14/43 60/14/43
f 56/10/44 55/11/44 57/11/44 58/10/44
f 54/10/45 50/10/45 56/10/45 58/10/45
f 48/11/46 52/11/46 57/11/46 55/11/46
f 52/11/47 54/10/47 58/10/47 57/11/47
f 59/15/48 60/14/48 62/14/48 61/15/48
f 53/14/49 51/15/49 61/15/49 62/14/49
f 51/15/50 47/15/50 59/15/50 61/15/50
f 47/15/51 49/14/51 60/14/51 59/15/51
f 7/9/52 5/2/52 6/2/52 2/4/52 4/4/52
f 16/1/1 20/1/1 71/2/1 113/2/1
f 15/3/2 17/6/2 115/5/2 114/4/2
f 71/2/53 74/2/53 70/4/53
f 113/2/54 71/2/54 70/4/54 114/4/54
f 22/7/5 25/7/5 76/2/5 73/2/5
f 20/7/6 23/7/6 74/2/6 71/2/6
f 22/7/7 73/2/7 74/2/7 23/7/7
f 24/8/8 28/8/8 79/9/8 75/9/8
f 25/7/9 26/8/9 77/9/9 76/2/9
f 73/2/55 76/2/55 77/9/55 75/9/55
f 27/3/11 78/4/11 79/9/11 28/8/11
f 75/9/56 79/9/56 78/4/56 72/4/56
f 29/6/13 31/6/13 82/5/13 118/5/13
f 80/10/14 88/10/14 86/11/14 84/11/14
f 118/5/57 82/5/57 81/12/57 117/12/57
f 117/12/16 81/12/16 32/13/16 30/13/16
f 72/4/17 78/4/17 27/3/17 21/3/17
f 75/9/18 77/9/18 26/8/18 24/8/18
f 70/4/19 72/4/19 21/3/19 19/3/19
f 114/4/20 70/4/20 19/3/20 15/3/20
f 113/2/21 116/12/21 18/13/21 16/1/21
f 116/12/22 117/12/22 30/13/22 18/13/22
f 69/14/23 115/5/23 17/6/23 83/15/23
f 84/11/58 29/6/58 118/5/58 80/10/58
f 80/10/23 118/5/23 115/5/23 69/14/23
f 83/15/23 17/6/23 29/6/23 84/11/23
f 88/10/24 92/10/24 90/11/24 86/11/24
f 84/11/59 86/11/59 85/15/59 83/15/59
f 69/14/60 87/14/60 88/10/60 80/10/60
f 83/15/27 85/15/27 87/14/27 69/14/27
f 90/11/33 94/11/33 93/15/33 89/15/33
f 86/11/61 90/11/61 89/15/61 85/15/61
f 87/14/62 91/14/62 92/10/62 88/10/62
f 85/15/31 89/15/31 91/14/31 87/14/31
f 95/14/63 99/14/63 100/10/63 96/10/63
f 91/14/28 95/14/28 96/10/28 92/10/28
f 89/15/34 93/15/34 95/14/34 91/14/34
f 92/10/35 96/10/35 94/11/35 90/11/35
f 100/10/36 106/10/36 105/11/36 98/11/36
f 93/15/37 97/15/37 99/14/37 95/14/37
f 96/10/38 100/10/38 98/11/38 94/11/38
f 94/11/64 98/11/64 97/15/64 93/15/64
f 101/15/40 102/11/40 104/10/40 103/14/40
f 98/11/42 102/11/42 101/15/42 97/15/42
f 99/14/41 103/14/41 104/10/41 100/10/41
f 99/14/50 110/14/50 112/14/50 103/14/50
f 106/10/44 108/10/44 107/11/44 105/11/44
f 104/10/46 108/10/46 106/10/46 100/10/46
f 98/11/45 105/11/45 107/11/45 102/11/45
f 102/11/47 107/11/47 108/10/47 104/10/47
f 109/15/48 111/15/48 112/14/48 110/14/48
f 103/14/49 112/14/49 111/15/49 101/15/49
f 101/15/43 111/15/43 109/15/43 97/15/43
f 97/15/51 109/15/51 110/14/51 99/14/51
f 75/9/65 72/4/65 70/4/65 74/2/65 73/2/65
f 63/2/33 66/12/33 65/5/33 64/4/33
f 67/12/33 68/5/33 65/5/33 66/12/33
f 13/12/66 32/13/66 31/6/66 14/5/66
f 81/12/66 82/5/66 31/6/66 32/13/66
f 113/2/28 114/4/28 115/5/28 116/12/28
f 117/12/28 116/12/28 115/5/28 118/5/28
