# Blender 4.0.2
# www.blender.org
mtllib sandhill_crane_wingL.mtl
o wingL_export
v 0.318050 0.011839 -0.051231
v 0.325320 -0.024408 -0.185249
v 0.320671 -0.006917 -0.183714
v 0.318050 0.005140 0.084811
v 0.318050 -0.006237 -0.051056
v 0.318050 -0.012210 0.086060
v -0.550390 0.019711 -0.035840
v -0.550390 0.014020 -0.035470
v -0.507584 0.017529 -0.147421
v -0.507584 0.012135 -0.145425
v -0.522137 0.002333 0.140078
v -0.522137 -0.003144 0.141616
v 0.064043 0.013383 -0.051806
v 0.124195 -0.005308 -0.177180
v 0.124195 -0.013342 -0.174701
v 0.064043 0.003585 -0.048265
v 0.025724 -0.002281 0.095644
v 0.025724 0.001620 0.094395
v 0.341569 -0.025470 0.189168
v 0.341569 -0.029371 0.190417
v -0.449430 -0.016447 0.179653
v -0.449430 -0.021925 0.181190
v 0.030231 -0.024087 0.185704
v 0.030231 -0.027988 0.186953
vn -0.0563 -0.3157 -0.9472
vn 0.0204 0.9967 -0.0789
vn -0.9305 -0.0764 -0.3582
vn -0.9866 0.0274 0.1606
vn -0.0119 -0.9973 -0.0719
vn 0.9739 -0.0265 -0.2256
vn -0.0265 -0.9973 0.0678
vn 0.0108 0.9958 0.0904
vn -0.0025 0.9979 0.0649
vn -0.0419 -0.9916 0.1227
vn 0.0197 0.9501 0.3113
vn -0.0372 -0.9982 -0.0471
vn 0.0050 0.9898 -0.1425
vn -0.0443 -0.0450 -0.9980
vn -0.0077 0.2848 0.9586
vn -0.0092 0.3049 0.9524
vn -0.0006 0.9610 0.2767
vn -0.0170 -0.9497 -0.3127
vn -0.0205 -0.9772 -0.2112
vn -0.4136 0.2460 0.8766
vn 1.0000 -0.0000 -0.0000
vn 0.9915 0.1289 0.0189
vt 0.390131 0.542860
vt 0.610115 0.527334
vt 0.611598 0.750000
vt 0.388876 0.750000
vt 0.390013 0.750000
vt 0.291640 0.750000
vt 0.391910 0.750000
vt 0.608121 0.750000
s 0
usemtl Material
f 15/1/1 10/1/1 9/2/1 14/2/1
f 14/2/2 9/2/2 7/3/2 13/3/2
f 10/1/3 8/4/3 7/3/3 9/2/3
f 8/4/4 12/5/4 11/6/4 7/3/4
f 17/7/5 12/5/5 8/4/5 16/4/5
f 4/8/6 19/8/6 20/7/6 6/7/6
f 16/4/7 8/4/7 10/1/7 15/1/7
f 13/3/8 7/3/8 11/6/8 18/8/8
f 1/3/9 13/3/9 18/8/9 4/8/9
f 5/4/10 16/4/10 15/1/10 2/1/10
f 11/6/11 21/6/11 23/8/11 18/8/11
f 6/7/12 17/7/12 16/4/12 5/4/12
f 3/2/13 14/2/13 13/3/13 1/3/13
f 2/1/14 15/1/14 14/2/14 3/2/14
f 23/8/15 21/6/15 22/5/15 24/7/15
f 19/8/16 23/8/16 24/7/16 20/7/16
f 18/8/17 23/8/17 19/8/17 4/8/17
f 17/7/18 24/7/18 22/5/18 12/5/18
f 6/7/19 20/7/19 24/7/19 17/7/19
f 12/5/20 22/5/20 21/6/20 11/6/20
f 6/7/21 5/4/21 1/3/21 4/8/21
f 2/1/22 3/2/22 1/3/22 5/4/22
