# Blender 4.0.2
# www.blender.org
mtllib sandhill_crane_body_flying_stripped.mtl
o body_flying_stripped_export
v 0.077621 -0.041991 0.302710
v 0.128661 0.122694 0.038344
v 0.121390 0.086447 -0.095674
v 0.126039 0.103938 -0.094139
v 0.041974 0.119738 -0.635163
v 0.043578 0.202763 -0.643952
v 0.022725 0.116623 -0.662493
v 0.022725 0.156174 -0.682176
v 0.028904 0.184259 -0.666080
v 0.022725 0.133326 -0.670730
v 0.007278 0.060827 -0.792494
v 0.002644 0.038675 -0.807065
v 0.007278 0.088954 -0.716549
v 0.002644 0.036609 -0.806234
v 0.128661 0.115995 0.174386
v 0.077621 -0.006738 0.332118
v 0.121878 0.102894 0.299883
v 0.069165 0.023239 0.396834
v 0.169429 0.059486 0.422321
v 0.075605 0.030784 0.438615
v 0.000000 -0.026594 -0.091316
v 0.000000 0.120558 -0.051744
v 0.000000 -0.060569 0.194306
v 0.000000 0.130055 0.036616
v 0.000000 0.119738 -0.635163
v 0.000000 0.202763 -0.643952
v 0.000000 0.116623 -0.662493
v 0.000000 0.156174 -0.682176
v 0.000000 0.184259 -0.666080
v 0.000000 0.133326 -0.670730
v 0.000000 0.060827 -0.792494
v 0.000000 0.038675 -0.807065
v 0.000000 0.088954 -0.716549
v 0.000000 0.036609 -0.806234
v 0.000000 0.003256 0.360924
v 0.000000 0.121821 0.180677
v 0.000000 0.013411 0.411606
v 0.000000 0.102894 0.299883
v 0.000000 0.021503 0.446231
v 0.000000 0.057906 0.429719
v 0.128661 0.104618 0.038519
v 0.053616 -0.041991 0.302710
v 0.128661 0.098645 0.175635
v 0.053616 -0.006738 0.332118
v 0.122234 0.109794 -0.110547
v 0.088887 -0.026594 -0.091316
v 0.088887 -0.059875 0.191146
v 0.128661 0.130055 0.036616
v 0.124769 0.121821 0.180677
v 0.071866 0.026105 0.364612
v 0.035693 0.107135 -0.196198
v 0.033284 0.112445 -0.332256
v 0.035158 0.045145 -0.215775
v 0.029412 0.053992 -0.336538
v 0.000000 0.045145 -0.215775
v 0.000000 0.053992 -0.336538
v 0.000000 0.107135 -0.196198
v 0.000000 0.112445 -0.332256
v 0.051129 0.204481 -0.585058
v 0.046163 0.117093 -0.587892
v 0.000000 0.117093 -0.587892
v 0.000000 0.204481 -0.585058
v 0.040023 0.161721 -0.533374
v 0.028005 0.118402 -0.554626
v 0.000000 0.118402 -0.554626
v 0.000000 0.161721 -0.533374
v 0.115162 0.104463 -0.125582
v 0.045008 0.003814 -0.156823
v 0.000000 0.003814 -0.156823
v 0.000000 0.110900 -0.090416
v 0.042776 0.161251 -0.639557
v 0.035439 0.151999 -0.650622
v 0.215437 0.024611 0.469320
v 0.075318 0.017456 0.473974
v 0.000000 0.015985 0.480586
v 0.000000 0.004696 0.529119
v -0.077621 -0.041991 0.302710
v -0.128661 0.122694 0.038344
v -0.121390 0.086447 -0.095674
v -0.126039 0.103938 -0.094139
v -0.041974 0.119738 -0.635163
v -0.043578 0.202763 -0.643952
v -0.022725 0.116623 -0.662493
v -0.022725 0.156174 -0.682176
v -0.028904 0.184259 -0.666080
v -0.022725 0.133326 -0.670730
v -0.007278 0.060827 -0.792494
v -0.002644 0.038675 -0.807065
v -0.007278 0.088954 -0.716549
v -0.002644 0.036609 -0.806234
v -0.128661 0.115995 0.174386
v -0.077621 -0.006738 0.332118
v -0.121878 0.102894 0.299883
v -0.069165 0.023239 0.396834
v -0.169429 0.059486 0.422321
v -0.075605 0.030784 0.438615
v -0.128661 0.104618 0.038519
v -0.053616 -0.041991 0.302710
v -0.128661 0.098645 0.175635
v -0.053616 -0.006738 0.332118
v -0.122234 0.109794 -0.110547
v -0.088887 -0.026594 -0.091316
v -0.088887 -0.059875 0.191146
v -0.128661 0.130055 0.036616
v -0.124769 0.121821 0.180677
v -0.071866 0.026105 0.364612
v -0.035693 0.107135 -0.196198
v -0.033284 0.112445 -0.332256
v -0.035158 0.045145 -0.215775
v -0.029412 0.053992 -0.336538
v -0.051129 0.204481 -0.585058
v -0.046163 0.117093 -0.587892
v -0.040023 0.161721 -0.533374
v -0.028005 0.118402 -0.554626
v -0.115162 0.104463 -0.125582
v -0.045008 0.003814 -0.156823
v -0.042776 0.161251 -0.639557
v -0.035439 0.151999 -0.650622
v -0.215437 0.024611 0.469320
v -0.075318 0.017456 0.473974
vn -0.0000 0.9996 -0.0292
vn 0.0018 -0.9931 -0.1176
vn -0.0000 0.7566 -0.6539
vn -0.0000 0.7671 -0.6415
vn -0.0000 0.4972 -0.8676
vn -0.0000 0.8139 -0.5810
vn -0.0000 0.5496 -0.8355
vn 0.9929 -0.0975 -0.0679
vn -0.0000 -0.8637 0.5041
vn 0.8958 -0.4295 0.1139
vn 0.2317 -0.9684 0.0927
vn 0.8159 -0.5758 -0.0527
vn 0.3927 -0.8631 -0.3176
vn 0.1567 -0.9701 0.1853
vn -0.0000 0.9876 0.1568
vn 0.0033 0.9439 0.3301
vn -0.0000 -0.8902 0.4556
vn -0.0000 -0.8214 0.5703
vn -0.0000 -0.9936 0.1133
vn -0.0000 -0.9984 -0.0559
vn 0.0131 0.9920 -0.1257
vn -0.0000 0.9984 0.0571
vn 0.0106 -0.9868 0.1615
vn 0.1501 -0.7362 0.6599
vn 0.9972 0.0180 0.0729
vn -0.2547 -0.8630 0.4362
vn 0.8948 -0.2625 -0.3612
vn 0.9636 -0.2659 -0.0265
vn 0.9780 0.1999 -0.0595
vn 0.9423 0.0880 0.3229
vn 0.9613 0.2740 0.0280
vn 0.9663 -0.2314 0.1126
vn -0.0000 -0.8188 -0.5741
vn -0.0000 -0.9973 -0.0731
vn 0.7877 -0.1561 -0.5960
vn 0.9990 -0.0299 -0.0334
vn 0.0373 0.9990 -0.0230
vn -0.0000 0.9992 0.0390
vn -0.0000 -0.9992 0.0393
vn 0.9543 -0.1694 0.2461
vn -0.0000 0.7705 0.6375
vn -0.0000 0.9713 0.2380
vn 0.9976 -0.0642 -0.0254
vn -0.0000 -0.9590 -0.2832
vn -0.0348 0.9638 -0.2644
vn 0.7600 -0.3027 -0.5751
vn -0.0000 -0.9070 -0.4210
vn 0.9925 -0.0528 -0.1102
vn 0.9955 -0.0287 -0.0898
vn 0.8575 -0.0705 -0.5097
vn 0.8492 -0.1338 -0.5107
vn 0.9915 -0.0325 -0.1262
vn 0.9212 -0.0769 -0.3814
vn 0.9668 -0.2536 -0.0297
vn 0.0295 -0.9819 -0.1869
vn 0.0402 0.8617 0.5058
vn 0.0807 -0.8400 -0.5365
vn 0.0441 -0.9645 -0.2605
vn -0.0018 -0.9931 -0.1176
vn -0.9929 -0.0975 -0.0679
vn -0.8958 -0.4295 0.1139
vn -0.2317 -0.9684 0.0927
vn -0.8159 -0.5758 -0.0527
vn -0.3927 -0.8631 -0.3176
vn -0.1567 -0.9701 0.1853
vn -0.0033 0.9439 0.3301
vn -0.0131 0.9920 -0.1257
vn -0.0106 -0.9868 0.1615
vn -0.1501 -0.7362 0.6599
vn -0.9972 0.0180 0.0729
vn 0.2547 -0.8630 0.4362
vn -0.8948 -0.2625 -0.3612
vn -0.9636 -0.2659 -0.0265
vn -0.9780 0.1999 -0.0595
vn -0.9423 0.0880 0.3229
vn -0.9613 0.2740 0.0280
vn -0.9663 -0.2314 0.1126
vn -0.7877 -0.1561 -0.5960
vn -0.9990 -0.0299 -0.0334
vn -0.0373 0.9990 -0.0230
vn -0.9543 -0.1694 0.2461
vn -0.9976 -0.0642 -0.0254
vn 0.0348 0.9638 -0.2644
vn -0.7600 -0.3027 -0.5751
vn -0.9925 -0.0528 -0.1102
vn -0.9955 -0.0287 -0.0898
vn -0.8575 -0.0705 -0.5097
vn -0.8493 -0.1338 -0.5107
vn -0.9915 -0.0325 -0.1262
vn -0.9212 -0.0769 -0.3814
vn -0.9668 -0.2536 -0.0297
vn -0.0295 -0.9819 -0.1869
vn -0.0402 0.8617 0.5058
vn -0.0807 -0.8400 -0.5365
vn -0.0441 -0.9645 -0.2605
vn 0.9915 -0.1289 -0.0189
vn 1.0000 -0.0000 -0.0000
vn -0.0000 -0.6406 0.7679
vn -0.9915 -0.1289 -0.0189
vn -1.0000 -0.0000 -0.0000
vt 0.750000 0.500000
vt 0.625000 0.500000
vt 0.250000 0.500000
vt 0.375000 0.500000
vt 0.375000 0.750000
vt 0.250000 0.750000
vt 0.625000 0.375000
vt 0.500000 0.375000
vt 0.500000 0.500000
vt 0.625000 0.750000
vt 0.750000 0.750000
vt 0.375000 0.500000
vt 0.340085 0.750000
vt 0.284915 0.750000
vt 0.284915 0.750000
vt 0.340085 0.750000
vt 0.610115 0.527334
vt 0.390131 0.542860
vt 0.388876 0.750000
vt 0.611598 0.750000
vt 0.391910 0.750000
vt 0.608121 0.750000
vt 0.625000 0.500000
vt 0.625000 0.500000
vt 0.375000 0.500000
vt 0.000000 0.000000
vt 0.625000 0.875000
vt 0.375000 0.875000
s 0
usemtl Material
f 21/3/2 46/4/2 47/5/2 23/6/2
f 35/6/11 50/5/11 18/5/11 37/6/11
f 50/5/12 49/10/12 17/10/12 18/5/12
f 18/5/13 17/10/13 19/10/13 20/5/13
f 37/6/14 18/5/14 20/5/14 39/6/14
f 49/10/15 36/11/15 38/11/15 17/10/15
f 17/10/16 38/11/16 40/11/16 19/10/16
f 5/4/19 25/3/19 27/3/19 7/4/19
f 60/12/20 61/3/20 25/3/20 5/4/20
f 45/2/21 22/1/21 24/11/21 48/10/21
f 48/10/22 24/11/22 36/11/22 49/10/22
f 1/13/23 42/14/23 23/6/23 47/5/23
f 44/15/24 16/16/24 50/5/24 35/6/24
f 16/16/25 1/13/25 47/5/25 50/5/25
f 42/14/26 44/15/26 35/6/26 23/6/26
f 4/17/27 3/18/27 46/4/27 45/2/27
f 3/18/28 41/19/28 47/5/28 46/4/28
f 2/20/29 4/17/29 45/2/29 48/10/29
f 43/21/30 15/22/30 49/10/30 50/5/30
f 15/22/31 2/20/31 48/10/31 49/10/31
f 41/19/32 43/21/32 50/5/32 47/5/32
f 68/4/33 69/3/33 55/3/33 53/4/33
f 53/4/34 55/3/34 56/3/34 54/4/34
f 67/23/35 68/4/35 53/4/35 51/2/35
f 51/2/36 53/4/36 54/4/36 52/24/36
f 70/1/37 67/23/37 51/2/37 57/1/37
f 57/1/38 51/2/38 52/24/38 58/1/38
f 64/25/39 65/3/39 61/3/39 60/12/39
f 63/2/40 64/25/40 60/12/40 59/2/40
f 66/1/41 63/2/41 59/2/41 62/1/41
f 58/1/42 52/24/42 63/2/42 66/1/42
f 52/24/43 54/4/43 64/25/43
f 54/4/44 56/3/44 65/3/44 64/25/44
f 22/1/45 45/2/45 67/23/45 70/1/45
f 45/2/46 46/4/46 68/4/46 67/23/46
f 46/4/47 21/3/47 69/3/47 68/4/47
f 59/2/48 60/12/48 71/26/48
f 5/4/49 71/26/49 60/12/49
f 5/4/50 72/26/50 71/26/50
f 10/9/51 72/26/51 5/4/51 7/4/51
f 63/2/54 52/24/54 64/25/54
f 74/5/55 73/10/55 76/27/55 75/28/55
f 19/10/56 40/11/56 76/11/56 73/10/56
f 20/5/57 19/10/57 73/10/57 74/5/57
f 39/6/58 20/5/58 74/5/58 75/6/58
f 21/3/59 23/6/59 103/5/59 102/4/59
f 35/6/62 37/6/62 94/5/62 106/5/62
f 106/5/63 94/5/63 93/10/63 105/10/63
f 94/5/64 96/5/64 95/10/64 93/10/64
f 37/6/65 39/6/65 96/5/65 94/5/65
f 105/10/15 93/10/15 38/11/15 36/11/15
f 93/10/66 95/10/66 40/11/66 38/11/66
f 81/4/19 83/4/19 27/3/19 25/3/19
f 112/12/20 81/4/20 25/3/20 61/3/20
f 101/2/67 104/10/67 24/11/67 22/1/67
f 104/10/22 105/10/22 36/11/22 24/11/22
f 77/13/68 103/5/68 23/6/68 98/14/68
f 100/15/69 35/6/69 106/5/69 92/16/69
f 92/16/70 106/5/70 103/5/70 77/13/70
f 98/14/71 23/6/71 35/6/71 100/15/71
f 80/17/72 101/2/72 102/4/72 79/18/72
f 79/18/73 102/4/73 103/5/73 97/19/73
f 78/20/74 104/10/74 101/2/74 80/17/74
f 99/21/75 106/5/75 105/10/75 91/22/75
f 91/22/76 105/10/76 104/10/76 78/20/76
f 97/19/77 103/5/77 106/5/77 99/21/77
f 116/4/33 109/4/33 55/3/33 69/3/33
f 109/4/34 110/4/34 56/3/34 55/3/34
f 115/23/78 107/2/78 109/4/78 116/4/78
f 107/2/79 108/24/79 110/4/79 109/4/79
f 70/1/80 57/1/80 107/2/80 115/23/80
f 57/1/38 58/1/38 108/24/38 107/2/38
f 114/25/39 112/12/39 61/3/39 65/3/39
f 113/2/81 111/2/81 112/12/81 114/25/81
f 66/1/41 62/1/41 111/2/41 113/2/41
f 58/1/42 66/1/42 113/2/42 108/24/42
f 108/24/82 114/25/82 110/4/82
f 110/4/44 114/25/44 65/3/44 56/3/44
f 22/1/83 70/1/83 115/23/83 101/2/83
f 101/2/84 115/23/84 116/4/84 102/4/84
f 102/4/47 116/4/47 69/3/47 21/3/47
f 111/2/85 117/26/85 112/12/85
f 81/4/86 112/12/86 117/26/86
f 81/4/87 117/26/87 118/26/87
f 86/9/88 83/4/88 81/4/88 118/26/88
f 113/2/91 114/25/91 108/24/91
f 120/5/92 75/28/92 76/27/92 119/10/92
f 95/10/93 119/10/93 76/11/93 40/11/93
f 96/5/94 120/5/94 119/10/94 95/10/94
f 39/6/95 75/6/95 120/5/95 96/5/95
f 4/17/96 2/20/96 41/19/96 3/18/96
f 15/22/97 43/21/97 41/19/97 2/20/97
f 42/14/98 1/13/98 16/16/98 44/15/98
f 98/14/98 100/15/98 92/16/98 77/13/98
f 80/17/99 79/18/99 97/19/99 78/20/99
f 91/22/100 78/20/100 97/19/100 99/21/100
usemtl Material.001
f 62/1/1 59/2/1 6/2/1 26/1/1
f 26/7/4 6/2/4 9/2/4 29/7/4
f 28/7/5 29/7/5 9/2/5 8/2/5
f 6/2/52 59/2/52 71/26/52
f 9/2/53 72/26/53 10/9/53 8/2/53
f 9/2/50 6/2/50 71/26/50 72/26/50
f 62/1/1 26/1/1 82/2/1 111/2/1
f 26/7/4 29/7/4 85/2/4 82/2/4
f 28/7/5 84/2/5 85/2/5 29/7/5
f 82/2/89 117/26/89 111/2/89
f 85/2/90 84/2/90 86/9/90 118/26/90
f 85/2/87 118/26/87 117/26/87 82/2/87
usemtl Material.002
f 28/7/3 8/2/3 11/2/3 31/7/3
f 30/8/6 10/9/6 14/9/6 34/8/6
f 31/7/7 11/2/7 12/9/7 32/8/7
f 8/2/8 10/9/8 12/9/8 11/2/8
f 33/3/9 34/8/9 14/9/9 13/4/9
f 10/9/10 7/4/10 13/4/10 14/9/10
f 7/4/17 27/3/17 33/3/17 13/4/17
f 10/9/18 30/8/18 32/8/18 12/9/18
f 28/7/3 31/7/3 87/2/3 84/2/3
f 30/8/6 34/8/6 90/9/6 86/9/6
f 31/7/7 32/8/7 88/9/7 87/2/7
f 84/2/60 87/2/60 88/9/60 86/9/60
f 33/3/9 89/4/9 90/9/9 34/8/9
f 86/9/61 90/9/61 89/4/61 83/4/61
f 83/4/17 89/4/17 33/3/17 27/3/17
f 86/9/18 88/9/18 32/8/18 30/8/18
l 40 39
