# Blender 4.0.2
# www.blender.org
mtllib sandhill_crane_legs.mtl
o legs_export
v 0.077621 -0.018363 -0.012896
v 0.077621 0.016890 0.016513
v 0.053616 -0.018363 -0.012896
v 0.053616 0.016890 0.016513
v 0.058065 -0.032278 0.129945
v 0.058065 -0.000968 0.131485
v 0.081591 -0.032278 0.129945
v 0.081591 -0.000968 0.131485
v 0.056860 -0.024036 0.154197
v 0.056860 0.000470 0.146850
v 0.084848 -0.024036 0.154197
v 0.084848 0.000470 0.146850
v 0.064073 -0.021035 0.166865
v 0.064073 -0.001853 0.160935
v 0.078996 -0.021035 0.166865
v 0.078996 -0.001853 0.160935
v 0.071303 -0.067233 0.403226
v 0.071303 -0.055589 0.390690
v 0.086259 -0.067233 0.403226
v 0.086259 -0.055589 0.390690
v 0.068654 -0.045657 0.408462
v 0.068654 -0.039180 0.396163
v 0.092659 -0.045657 0.408462
v 0.092659 -0.039180 0.396163
v 0.068654 -0.022631 0.372002
v 0.082407 -0.022631 0.372002
v 0.068654 -0.019438 0.373529
v 0.082407 -0.019438 0.373529
v 0.068654 -0.105913 0.503705
v 0.074797 -0.105913 0.503705
v 0.068654 -0.102747 0.505217
v 0.074797 -0.102747 0.505217
v -0.077621 -0.018363 -0.012896
v -0.077621 0.016890 0.016513
v -0.053616 -0.018363 -0.012896
v -0.053616 0.016890 0.016513
v -0.058065 -0.032278 0.129945
v -0.058065 -0.000968 0.131485
v -0.081591 -0.032278 0.129945
v -0.081591 -0.000968 0.131485
v -0.056860 -0.024036 0.154197
v -0.056860 0.000470 0.146850
v -0.084848 -0.024036 0.154197
v -0.084848 0.000470 0.146850
v -0.064073 -0.021035 0.166865
v -0.064073 -0.001853 0.160935
v -0.078996 -0.021035 0.166865
v -0.078996 -0.001853 0.160935
v -0.071303 -0.067233 0.403226
v -0.071303 -0.055589 0.390690
v -0.086259 -0.067233 0.403226
v -0.086259 -0.055589 0.390690
v -0.068654 -0.045657 0.408462
v -0.068654 -0.039180 0.396163
v -0.092659 -0.045657 0.408462
v -0.092659 -0.039180 0.396163
v -0.068654 -0.022631 0.372002
v -0.082407 -0.022631 0.372002
v -0.068654 -0.019438 0.373529
v -0.082407 -0.019438 0.373529
v -0.068654 -0.105913 0.503705
v -0.074797 -0.105913 0.503705
v -0.068654 -0.102747 0.505217
v -0.074797 -0.102747 0.505217
vn -0.0000 0.9882 0.1535
vn -0.0000 0.9957 -0.0932
vn -0.9994 -0.0152 0.0326
vn 0.9995 0.0135 -0.0291
vn -0.0000 -0.9953 -0.0970
vn -0.8728 0.1419 0.4670
vn -0.9982 -0.0062 -0.0592
vn 0.9873 -0.0165 -0.1583
vn -0.0000 -0.9468 0.3218
vn 0.9991 -0.0214 -0.0357
vn 0.9106 0.1201 0.3953
vn -0.0000 -0.9731 0.2305
vn -0.0000 0.9867 0.1627
vn -0.0000 -0.4933 -0.8699
vn -0.0000 -0.9814 -0.1918
vn -0.0000 0.9737 0.2277
vn -0.9991 0.0213 0.0356
vn -0.0000 0.8848 0.4660
vn -0.9899 -0.1145 -0.0836
vn 0.9450 -0.2641 -0.1927
vn 0.9666 -0.2554 0.0197
vn -0.0000 0.4315 -0.9021
vn 0.8802 -0.1237 -0.4582
vn -0.9914 -0.1077 -0.0737
vn -0.0000 0.7536 0.6573
vn -0.0000 -0.4311 0.9023
vn -0.0000 0.8613 0.5082
vn -0.9942 -0.0908 -0.0574
vn -0.0000 -0.9332 -0.3593
vn 0.9994 -0.0152 0.0326
vn -0.9995 0.0135 -0.0291
vn 0.8728 0.1419 0.4670
vn 0.9982 -0.0062 -0.0592
vn -0.9873 -0.0165 -0.1583
vn -0.9991 -0.0214 -0.0357
vn -0.9106 0.1201 0.3953
vn 0.9991 0.0213 0.0356
vn 0.9899 -0.1145 -0.0836
vn -0.9450 -0.2641 -0.1927
vn -0.9666 -0.2554 0.0197
vn -0.8802 -0.1237 -0.4582
vn 0.9914 -0.1077 -0.0737
vn 0.9942 -0.0908 -0.0574
vt 0.340085 0.750000
vt 0.284915 0.750000
vt 0.284915 0.750000
vt 0.340085 0.750000
s 0
usemtl Material.002
f 2/1/1 4/2/1 6/2/1 8/1/1
f 8/1/2 6/2/2 10/2/2 12/1/2
f 4/2/3 3/3/3 5/3/3 6/2/3
f 1/4/4 2/1/4 8/1/4 7/4/4
f 3/3/5 1/4/5 7/4/5 5/3/5
f 10/2/6 9/3/6 13/3/6 14/2/6
f 6/2/7 5/3/7 9/3/7 10/2/7
f 7/4/8 8/1/8 12/1/8 11/4/8
f 5/3/9 7/4/9 11/4/9 9/3/9
f 15/4/10 16/1/10 20/1/10 19/4/10
f 11/4/11 12/1/11 16/1/11 15/4/11
f 9/3/12 11/4/12 15/4/12 13/3/12
f 12/1/13 10/2/13 14/2/13 16/1/13
f 20/1/14 18/2/14 25/2/14 26/1/14
f 13/3/15 15/4/15 19/4/15 17/3/15
f 16/1/16 14/2/16 18/2/16 20/1/16
f 14/2/17 13/3/17 17/3/17 18/2/17
f 21/3/18 23/4/18 24/1/18 22/2/18
f 18/2/19 17/3/19 21/3/19 22/2/19
f 19/4/20 20/1/20 24/1/20 23/4/20
f 19/4/21 23/4/21 32/4/21 30/4/21
f 26/1/22 25/2/22 27/2/22 28/1/22
f 24/1/23 20/1/23 26/1/23 28/1/23
f 18/2/24 22/2/24 27/2/24 25/2/24
f 22/2/25 24/1/25 28/1/25 27/2/25
f 29/3/26 30/4/26 32/4/26 31/3/26
f 23/4/27 21/3/27 31/3/27 32/4/27
f 21/3/28 17/3/28 29/3/28 31/3/28
f 17/3/29 19/4/29 30/4/29 29/3/29
f 34/1/1 40/1/1 38/2/1 36/2/1
f 40/1/2 44/1/2 42/2/2 38/2/2
f 36/2/30 38/2/30 37/3/30 35/3/30
f 33/4/31 39/4/31 40/1/31 34/1/31
f 35/3/5 37/3/5 39/4/5 33/4/5
f 42/2/32 46/2/32 45/3/32 41/3/32
f 38/2/33 42/2/33 41/3/33 37/3/33
f 39/4/34 43/4/34 44/1/34 40/1/34
f 37/3/9 41/3/9 43/4/9 39/4/9
f 47/4/35 51/4/35 52/1/35 48/1/35
f 43/4/36 47/4/36 48/1/36 44/1/36
f 41/3/12 45/3/12 47/4/12 43/4/12
f 44/1/13 48/1/13 46/2/13 42/2/13
f 52/1/14 58/1/14 57/2/14 50/2/14
f 45/3/15 49/3/15 51/4/15 47/4/15
f 48/1/16 52/1/16 50/2/16 46/2/16
f 46/2/37 50/2/37 49/3/37 45/3/37
f 53/3/18 54/2/18 56/1/18 55/4/18
f 50/2/38 54/2/38 53/3/38 49/3/38
f 51/4/39 55/4/39 56/1/39 52/1/39
f 51/4/40 62/4/40 64/4/40 55/4/40
f 58/1/22 60/1/22 59/2/22 57/2/22
f 56/1/41 60/1/41 58/1/41 52/1/41
f 50/2/42 57/2/42 59/2/42 54/2/42
f 54/2/25 59/2/25 60/1/25 56/1/25
f 61/3/26 63/3/26 64/4/26 62/4/26
f 55/4/27 64/4/27 63/3/27 53/3/27
f 53/3/43 63/3/43 61/3/43 49/3/43
f 49/3/29 61/3/29 62/4/29 51/4/29
